<?xml version="1.0" standalone="no"?>
<!DOCTYPE svg PUBLIC "-//W3C//DTD SVG 20010904//EN"
 "http://www.w3.org/TR/2001/REC-SVG-20010904/DTD/svg10.dtd">
<svg version="1.0" xmlns="http://www.w3.org/2000/svg"
 width="512.000000pt" height="512.000000pt" viewBox="0 0 512.000000 512.000000"
 preserveAspectRatio="xMidYMid meet">

<g transform="translate(0.000000,512.000000) scale(0.100000,-0.100000)"
fill="#000000" stroke="none">
<path d="M2469 5067 c-104 -30 -190 -104 -237 -206 -22 -47 -27 -70 -27 -141
0 -99 27 -168 90 -239 l37 -41 -45 0 c-74 0 -214 -29 -297 -61 -132 -51 -277
-160 -368 -279 -51 -66 -103 -184 -173 -390 l-76 -225 -35 -8 c-20 -5 -49 -22
-64 -38 l-29 -30 0 -169 0 -170 33 -32 32 -33 1250 0 1250 0 32 33 33 32 0
170 0 169 -29 30 c-15 16 -44 33 -64 38 l-35 8 -76 225 c-70 206 -122 324
-173 390 -91 119 -236 228 -368 279 -83 32 -223 61 -297 61 l-45 0 37 41 c63
70 90 140 90 239 0 76 -3 92 -32 151 -60 121 -170 196 -300 205 -40 2 -87 -2
-114 -9z m312 -510 c-10 -9 -11 -8 -5 6 3 10 9 15 12 12 3 -3 0 -11 -7 -18z
m414 -305 c-3 -3 -11 0 -18 7 -9 10 -8 11 6 5 10 -3 15 -9 12 -12z"/>
<path d="M4772 4348 c-7 -7 -12 -40 -12 -80 l0 -67 -71 -3 c-55 -2 -74 -7 -83
-20 -8 -13 -8 -23 0 -35 9 -14 27 -19 82 -21 l71 -3 3 -71 c2 -55 7 -73 21
-82 12 -8 22 -8 35 0 13 9 18 27 20 82 l3 71 71 3 c55 2 73 7 82 21 8 12 8 22
0 35 -9 13 -28 18 -83 20 l-71 3 0 67 c0 69 -10 92 -40 92 -9 0 -21 -5 -28
-12z"/>
<path d="M4252 3948 c-7 -7 -12 -40 -12 -80 l0 -67 -71 -3 c-55 -2 -74 -7 -83
-20 -8 -13 -8 -23 0 -35 9 -14 27 -19 82 -21 l71 -3 3 -71 c2 -55 7 -73 21
-82 12 -8 22 -8 35 0 13 9 18 27 20 82 l3 71 71 3 c55 2 73 7 82 21 8 12 8 22
0 35 -9 13 -28 18 -83 20 l-71 3 0 67 c0 69 -10 92 -40 92 -9 0 -21 -5 -28
-12z"/>
<path d="M293 3188 c-6 -7 -30 -58 -54 -113 -39 -90 -44 -108 -44 -177 l0 -77
84 -123 c111 -161 112 -175 45 -342 -49 -124 -50 -147 -7 -154 27 -4 33 6 86
141 51 127 59 189 33 251 -8 19 -48 84 -90 145 -96 140 -97 156 -30 315 34 81
44 114 37 125 -13 21 -47 26 -60 9z"/>
<path d="M532 3188 c-5 -7 -29 -58 -53 -113 -39 -89 -44 -108 -44 -177 l0 -76
88 -129 c108 -159 109 -168 40 -339 -48 -122 -49 -145 -6 -152 27 -4 33 6 86
141 51 127 59 189 33 251 -8 19 -48 84 -90 145 -95 140 -97 156 -31 313 37 87
44 111 35 128 -12 22 -42 26 -58 8z"/>
<path d="M1269 2907 c-103 -29 -190 -104 -237 -206 -38 -80 -38 -202 0 -282
47 -103 136 -179 237 -205 l46 -11 5 -62 c6 -75 30 -100 64 -65 12 11 16 36
16 98 0 91 -8 106 -55 106 -97 0 -216 88 -248 184 -59 174 53 352 235 375 57
7 81 29 62 59 -14 21 -64 25 -125 9z"/>
<path d="M3733 2909 c-30 -31 -7 -69 42 -69 135 0 265 -137 265 -280 0 -143
-130 -280 -265 -280 -53 0 -55 -8 -55 -204 0 -249 -26 -343 -128 -472 -59 -74
-110 -108 -412 -269 -378 -202 -421 -223 -498 -241 -79 -19 -210 -14 -287 10
-66 21 -715 367 -782 417 -29 22 -63 53 -75 69 -39 54 -103 27 -73 -30 16 -31
73 -84 135 -126 96 -65 707 -383 780 -405 105 -33 255 -33 360 0 84 26 698
348 796 417 107 75 188 187 231 318 23 71 27 104 32 260 l6 179 46 11 c101 26
190 103 237 205 22 47 27 70 26 141 0 72 -4 94 -28 147 -34 75 -104 144 -179
178 -65 30 -157 42 -174 24z"/>
<path d="M1650 2605 c-21 -25 -7 -48 50 -82 101 -61 155 -77 260 -77 105 1
161 17 260 77 63 38 77 70 38 88 -21 9 -33 5 -84 -24 -91 -54 -152 -70 -238
-65 -63 4 -87 12 -165 51 -50 26 -95 47 -100 47 -5 0 -14 -7 -21 -15z"/>
<path d="M2856 2607 c-29 -21 -15 -48 44 -84 100 -60 155 -76 260 -76 105 0
160 16 260 76 58 35 73 64 45 87 -14 12 -30 7 -111 -34 -150 -76 -260 -75
-397 4 -78 45 -77 45 -101 27z"/>
<path d="M475 1991 c-11 -5 -31 -21 -45 -36 -21 -22 -25 -38 -28 -99 -4 -82
11 -124 54 -153 23 -15 62 -16 432 -10 1007 17 1416 29 1443 43 21 10 34 11
65 1 22 -6 95 -11 164 -11 100 0 141 4 205 23 133 37 315 144 315 185 0 17
-21 36 -40 36 -8 0 -38 -16 -65 -36 -240 -175 -558 -178 -814 -10 l-66 43
-620 12 c-341 6 -701 13 -800 16 -99 3 -189 1 -200 -4z m1048 -92 l548 -12 65
-42 65 -43 -123 -6 c-68 -3 -400 -10 -738 -16 -338 -6 -661 -13 -716 -16 -133
-8 -144 -2 -144 74 0 33 5 64 13 71 9 11 60 12 247 7 129 -3 482 -11 783 -17z"/>
<path d="M130 1305 c-10 -12 -10 -21 -2 -41 12 -24 14 -25 113 -22 84 3 104 6
113 21 8 12 8 22 0 35 -16 24 -204 31 -224 7z"/>
<path d="M452 1308 c-16 -16 -15 -43 2 -57 9 -8 95 -11 291 -9 252 3 279 5
289 21 8 12 8 22 0 35 -10 15 -37 17 -290 20 -209 2 -283 -1 -292 -10z"/>
<path d="M4092 1308 c-16 -16 -15 -43 2 -57 9 -8 95 -11 291 -9 252 3 279 5
289 21 8 12 8 22 0 35 -10 15 -37 17 -290 20 -209 2 -283 -1 -292 -10z"/>
<path d="M4772 1308 c-7 -7 -12 -19 -12 -28 0 -32 23 -40 116 -40 93 0 124 11
124 44 0 28 -25 36 -120 36 -61 0 -100 -4 -108 -12z"/>
<path d="M1594 1150 c-191 -20 -374 -75 -559 -166 -169 -83 -293 -173 -430
-309 -158 -158 -271 -324 -349 -512 -37 -87 -37 -108 -4 -119 28 -8 40 7 80
101 236 551 816 935 1414 935 l101 0 343 -514 c188 -283 349 -517 357 -520 8
-3 19 -6 24 -6 5 0 165 234 356 520 l346 520 101 0 c402 0 804 -172 1096 -469
120 -122 214 -254 285 -401 31 -63 62 -126 68 -140 16 -31 39 -36 61 -14 21
21 18 31 -60 189 -83 169 -173 294 -309 430 -137 137 -262 226 -430 309 -242
120 -482 176 -751 176 l-101 0 -333 -500 c-183 -275 -336 -500 -340 -500 -4 0
-153 219 -331 487 -178 267 -330 492 -337 500 -15 14 -171 16 -298 3z"/>
</g>
</svg>
